<svg width="55" height="55" viewBox="0 0 55 55" fill="none" xmlns="http://www.w3.org/2000/svg">
<g clip-path="url(#clip0)">
<path d="M54.7518 20.795C54.091 18.7696 52.2873 17.4608 50.1568 17.4608H36.4175L32.0909 4.32167C31.4258 2.30188 29.6259 1 27.5015 1C27.4947 1 27.4878 1 27.481 1.00011C25.3479 1.00849 23.5487 2.32648 22.8975 4.35787L18.697 17.4608H4.84331C2.70741 17.4608 0.902324 18.774 0.244778 20.8061C-0.412877 22.8382 0.280759 24.96 2.01195 26.2113L13.2211 34.3134L8.90652 47.4161C8.23877 49.444 8.92081 51.5687 10.644 52.829C11.5095 53.4621 12.5029 53.7787 13.497 53.7787C14.482 53.7786 15.4676 53.4676 16.3288 52.845L27.5574 44.729L38.6525 52.8314C40.3738 54.0885 42.6031 54.0945 44.3315 52.8472C46.0599 51.5999 46.7562 49.4823 46.1056 47.4524L41.8933 34.3134L53.0072 26.1974C54.7278 24.941 55.4127 22.8204 54.7518 20.795V20.795ZM51.1069 23.5951L38.115 33.0826L43.037 48.4361C43.3683 49.4694 42.668 50.0737 42.4456 50.2343C42.2232 50.3949 41.429 50.8691 40.5525 50.2289L27.5669 40.746L14.4411 50.2336C13.5603 50.8702 12.7681 50.3906 12.5462 50.2283C12.3244 50.066 11.627 49.4563 11.9671 48.4238L17.0188 33.0825L3.89952 23.5999C3.01814 22.9627 3.22586 22.0597 3.3105 21.7981C3.39514 21.5366 3.75581 20.683 4.84331 20.683H21.0478L25.966 5.34151C26.2976 4.30728 27.2192 4.2234 27.4939 4.22222H27.4995C27.7809 4.22222 28.6931 4.30481 29.0305 5.32948L34.0862 20.683H50.1569C51.2417 20.683 51.6036 21.5337 51.6886 21.7945C51.7737 22.0552 51.9829 22.9555 51.1069 23.5951V23.5951Z" fill="white"/>
<path d="M37.5482 25.0735C36.8778 25.0735 36.335 25.6169 36.335 26.2867V28.3012C36.335 28.971 36.8778 29.5144 37.5482 29.5144C38.218 29.5144 38.7614 28.971 38.7614 28.3012V26.2867C38.7614 25.6169 38.218 25.0735 37.5482 25.0735Z" fill="white"/>
<path d="M17.5516 25.0735C16.8818 25.0735 16.3384 25.6169 16.3384 26.2867V28.3012C16.3384 28.971 16.8818 29.5144 17.5516 29.5144C18.2221 29.5144 18.7648 28.971 18.7648 28.3012V26.2867C18.7648 25.6169 18.2221 25.0735 17.5516 25.0735Z" fill="white"/>
<path d="M30.0587 26.7411C29.8534 26.6065 28.9453 26.2571 28.3785 27.0893C28.1068 27.488 27.7112 27.536 27.5501 27.536C27.3896 27.536 26.9865 27.4924 26.7217 27.0893C26.3533 26.5288 25.6013 26.3733 25.0415 26.7411C24.4816 27.1088 24.3256 27.8608 24.6933 28.4213C25.3271 29.3862 26.3956 29.9625 27.5501 29.9625C28.7052 29.9625 29.7731 29.3862 30.4069 28.4213C30.7747 27.8614 30.6192 27.1088 30.0587 26.7411V26.7411Z" fill="white"/>
</g>
<defs>
<clipPath id="clip0">
<rect width="55" height="55" fill="white"/>
</clipPath>
</defs>
</svg>
