<svg width="309" height="309" viewBox="0 0 309 309" fill="none" xmlns="http://www.w3.org/2000/svg">
<g clip-path="url(#clip0)">
<g filter="url(#filter0_d)">
<path d="M35.6 18.8H215.6C235.2 18.8 251.2 34.8001 251.2 54.4001V239.6C251.2 259.2 235.2 275.2 215.6 275.2H35.6C16 275.2 0 259.2 0 239.6V54C0 34.8 16 18.8 35.6 18.8Z" fill="#FF6094"/>
</g>
<path d="M116.4 186.4L63.6 133.6L0 197.2V210.4V239.2C0 258.8 16 274.8 35.6 274.8H215.6C235.2 274.8 251.2 258.8 251.2 239.2V210.4V170.8L191.6 110.8L116.4 186.4Z" fill="#FEC988"/>
<path d="M114.8 126C127.171 126 137.2 115.971 137.2 103.6C137.2 91.2289 127.171 81.2001 114.8 81.2001C102.429 81.2001 92.3999 91.2289 92.3999 103.6C92.3999 115.971 102.429 126 114.8 126Z" fill="#F49F2A"/>
<path d="M251.2 290C283.012 290 308.8 264.212 308.8 232.4C308.8 200.588 283.012 174.8 251.2 174.8C219.388 174.8 193.6 200.588 193.6 232.4C193.6 264.212 219.388 290 251.2 290Z" fill="white"/>
<path d="M242.8 205.6C242.8 200.8 246.4 197.2 251.2 197.2C255.6 197.2 259.6 200.8 259.6 205.6V260C259.6 264.8 256 268.4 251.2 268.4C246.4 268.4 242.8 264.8 242.8 260V205.6Z" fill="#FF6094"/>
<path d="M245.2 211.2C242 208 242 202.8 245.2 199.6C248.4 196.4 253.6 196.4 256.8 199.6L276 218.8C279.2 222 279.2 227.2 276 230.4C272.8 233.6 267.6 233.6 264.4 230.4L245.2 211.2Z" fill="#FF6094"/>
<path d="M245.2 199.6C248.4 196.4 253.6 196.4 256.8 199.6C260 202.8 260 208 256.8 211.2L238 230.4C234.8 233.6 229.6 233.6 226.4 230.4C223.2 227.2 223.2 222 226.4 218.8L245.2 199.6Z" fill="#FF6094"/>
</g>
<defs>
<filter id="filter0_d" x="-4" y="18.8" width="259.2" height="264.4" filterUnits="userSpaceOnUse" color-interpolation-filters="sRGB">
<feFlood flood-opacity="0" result="BackgroundImageFix"/>
<feColorMatrix in="SourceAlpha" type="matrix" values="0 0 0 0 0 0 0 0 0 0 0 0 0 0 0 0 0 0 127 0"/>
<feOffset dy="4"/>
<feGaussianBlur stdDeviation="2"/>
<feColorMatrix type="matrix" values="0 0 0 0 0 0 0 0 0 0 0 0 0 0 0 0 0 0 0.25 0"/>
<feBlend mode="normal" in2="BackgroundImageFix" result="effect1_dropShadow"/>
<feBlend mode="normal" in="SourceGraphic" in2="effect1_dropShadow" result="shape"/>
</filter>
<clipPath id="clip0">
<rect width="308.8" height="308.8" fill="white"/>
</clipPath>
</defs>
</svg>
